<?xml version="1.0" encoding="UTF-8"?>
<svg id="Layer_1" xmlns="http://www.w3.org/2000/svg" version="1.1" viewBox="0 0 544.8 232.7">
  <!-- Generator: Adobe Illustrator 29.1.0, SVG Export Plug-In . SVG Version: 2.1.0 Build 142)  -->
  <defs>
    <style>
      .st0 {
        fill: #fff;
      }

      .st1 {
        fill: #c27aff;
      }

      .st2 {
        fill: #00a236;
      }
    </style>
  </defs>
  <g>
    <g>
      <path class="st2" d="M224.1-740.8c-9.5,0-17-2.9-22.3-8.7s-8-14.3-8-25.6,2.7-19.8,8-25.6c5.3-5.8,12.7-8.7,22.3-8.7s15,2.1,20,6.4c5,4.2,8.1,10.4,9.2,18.4h-14v-2.1c0-2-.5-3.9-1.5-5.8s-2.6-3.4-4.8-4.5-5.2-1.8-8.8-1.8c-5.4,0-9.4,1.5-11.9,4.6-2.5,3.1-3.8,7.9-3.8,14.5v9.1c0,6.6,1.3,11.4,3.8,14.5,2.5,3.1,6.5,4.6,11.9,4.6s6.6-.6,8.8-1.8c2.2-1.2,3.8-2.8,4.8-4.7s1.5-4,1.5-6.1v-2.3h14.1c-1,8.3-4.1,14.6-9.1,19s-11.8,6.6-20.2,6.6h0Z"/>
      <path class="st2" d="M277.8-740.8c-8,0-14.4-2.3-18.9-7-4.5-4.6-6.8-11.2-6.8-19.8s2.3-15.2,6.8-19.8c4.5-4.6,10.8-7,18.9-7s14.3,2.3,18.8,7,6.8,11.2,6.8,19.8-2.3,15.2-6.8,19.8c-4.5,4.6-10.8,7-18.8,7ZM277.8-751c4,0,6.9-1.1,8.7-3.3,1.8-2.2,2.8-5.7,2.8-10.4v-5.6c0-4.7-.9-8.2-2.8-10.4-1.8-2.2-4.8-3.3-8.7-3.3s-6.8,1.1-8.7,3.3-2.9,5.7-2.9,10.4v5.6c0,4.7,1,8.2,2.9,10.4s4.8,3.3,8.7,3.3Z"/>
      <path class="st2" d="M304.8-741.8v-51.6h12.3v9.3h1.8c1.2-3.3,3-5.8,5.3-7.4,2.3-1.7,5.3-2.5,8.9-2.5h7.8v10.9h-13.5c-3.2,0-5.5.9-7,2.6s-2.3,4.5-2.3,8.3v30.4h-13.4Z"/>
      <path class="st2" d="M341-725.9v-67.4h12.3v9.4h1.8c1.2-3.2,3.2-5.8,5.8-7.6,2.6-1.8,5.9-2.8,9.7-2.8s7.6,1.1,10.6,3.2,5.4,5.2,7,9.2,2.5,8.8,2.5,14.3c0,8.3-1.8,14.9-5.5,19.6-3.7,4.8-8.6,7.1-14.7,7.1s-6.8-.8-9.3-2.5-4.3-4-5.4-7h-1.8c.1,2.5.2,4.6.2,6.3,0,1.7,0,3.2,0,4.5v13.5h-13.3,0ZM365.6-751c3.8,0,6.6-1.1,8.4-3.3,1.8-2.2,2.7-5.6,2.7-10.3v-5.8c0-4.6-.9-8.1-2.7-10.3-1.8-2.2-4.6-3.3-8.4-3.3s-6.6,1.1-8.5,3.3c-1.8,2.2-2.8,5.6-2.8,10.3v5.8c0,4.6.9,8.1,2.8,10.3,1.8,2.2,4.7,3.3,8.5,3.3Z"/>
    </g>
    <g>
      <path class="st2" d="M199.7-682.9v-54.2h19.3l10.4,37.1h1.5l10.3-37.1h19.3v54.2h-11.2v-45.5h-1.5l-12.7,45.5h-10.1l-12.7-46h-1.6v46h-10.9,0Z"/>
      <path class="st2" d="M275.2-682.1c-4.1,0-7.4-1.1-9.8-3.2s-3.5-5.1-3.5-8.8,1.3-6.8,3.9-9c2.6-2.2,6.3-3.5,11.2-4l11.2-1.1v6.9l-7.9.7c-2.6.3-4.4.8-5.5,1.6-1.1.8-1.7,1.9-1.7,3.5v.7c0,1.5.6,2.6,1.9,3.4,1.2.8,3,1.2,5.1,1.2,5.5,0,8.2-2.2,8.2-6.6v-12.6c0-2.7-.6-4.7-1.7-6-1.1-1.3-3-1.9-5.4-1.9s-3,.2-4,.7-1.8,1-2.2,1.6c-.5.6-.7,1.2-.7,1.7v.3h-11.1c1.9-8.4,8-12.6,18.2-12.6s10.2,1.4,13.2,4.1c3,2.7,4.5,6.7,4.5,12v26.7h-10v-7.1h-1.5c-.9,2.6-2.4,4.5-4.5,5.9-2,1.4-4.7,2-7.9,2h0Z"/>
      <path class="st2" d="M302.1-682.9v-42h10v7.5h1.5c1-2.7,2.5-4.7,4.5-6.1,2-1.4,4.5-2.1,7.6-2.1s7.6,1.3,9.9,3.9,3.4,6.4,3.4,11.5v27.4h-10.9v-25.3c0-3.1-.6-5.5-1.8-6.9s-3.1-2.2-5.7-2.2-4.5.7-5.7,2.2-1.9,3.8-1.9,6.9v25.3h-10.9,0Z"/>
    </g>
  </g>
  <g>
    <path class="st2" d="M41.6-750.3c17.6-31,17.7-70.5-2.6-102.1h0c-2.6-4.1-6.7-7.1-11.4-8.4-22.3-6.3-42.7-19.5-57.7-39.1l-72.5-94.8,64.4,100.3c30.6,47.7,19.2,110.5-26.2,144.4l-95.6,71.3,101.2-63.3c31-19.4,68.5-21.4,100.4-8.3h0Z"/>
    <path class="st2" d="M89.8-712.3l70.1,91.7-58-90.4c-4-.7-8.1-1.1-12.1-1.4h0Z"/>
    <path class="st2" d="M121.7-865.3l95.6-71.3-101.2,63.2c-13.9,8.7-29,13.9-44.4,15.8,7.4,7.4,15.9,13.4,25.2,18.1,6.6-9.7,14.9-18.4,24.8-25.8h0Z"/>
    <path class="st2" d="M206.7-828.2l95.6-71.3-101.2,63.3c-33.9,21.1-75.3,21.7-108.9,4.5-12-6.1-22.9-14.4-32.2-25-1.8-1.9-3.4-4-5.1-6.1l-72.5-94.8,64.4,100.4h0c22.2,34.6,22.3,77.2,3.3,110.8-7.1,12.8-17,24.3-29.5,33.5l-95.6,71.3,101.2-63.3c17.4-10.9,36.9-16.3,56.2-16.7,4.4-.1,8.8,0,13.1.5,29.5,3,57.7,17.6,76.9,42.7l72.5,94.8-64.4-100.4c-30.6-47.7-19.2-110.5,26.2-144.4h0Z"/>
  </g>
  <g>
    <g>
      <g>
        <path class="st1" d="M236.2,170.5c-9.5,0-17-2.9-22.3-8.7s-8-14.3-8-25.6,2.7-19.8,8-25.6c5.3-5.8,12.7-8.7,22.3-8.7s15,2.1,20,6.4c5,4.2,8.1,10.4,9.2,18.4h-14v-2.1c0-2-.5-3.9-1.5-5.8s-2.6-3.4-4.8-4.5-5.2-1.8-8.8-1.8c-5.4,0-9.4,1.5-11.9,4.6-2.5,3.1-3.8,7.9-3.8,14.5v9.1c0,6.6,1.3,11.4,3.8,14.5,2.5,3.1,6.5,4.6,11.9,4.6s6.6-.6,8.8-1.8c2.2-1.2,3.8-2.8,4.8-4.7s1.5-4,1.5-6.1v-2.3h14.1c-1,8.3-4.1,14.6-9.1,19s-11.8,6.6-20.2,6.6h0Z"/>
        <path class="st1" d="M289.9,170.5c-8,0-14.4-2.3-18.9-7-4.5-4.6-6.8-11.2-6.8-19.8s2.3-15.2,6.8-19.8c4.5-4.6,10.8-7,18.9-7s14.3,2.3,18.8,7,6.8,11.2,6.8,19.8-2.3,15.2-6.8,19.8c-4.5,4.6-10.8,7-18.8,7ZM289.9,160.2c4,0,6.9-1.1,8.7-3.3,1.8-2.2,2.8-5.7,2.8-10.4v-5.6c0-4.7-.9-8.2-2.8-10.4-1.8-2.2-4.8-3.3-8.7-3.3s-6.8,1.1-8.7,3.3-2.9,5.7-2.9,10.4v5.6c0,4.7,1,8.2,2.9,10.4s4.8,3.3,8.7,3.3Z"/>
        <path class="st1" d="M316.9,169.5v-51.6h12.3v9.3h1.8c1.2-3.3,3-5.8,5.3-7.4,2.3-1.7,5.3-2.5,8.9-2.5h7.8v10.9h-13.5c-3.2,0-5.5.9-7,2.6s-2.3,4.5-2.3,8.3v30.4h-13.4Z"/>
        <path class="st1" d="M353.2,185.3v-67.4h12.3v9.4h1.8c1.2-3.2,3.2-5.8,5.8-7.6,2.6-1.8,5.9-2.8,9.7-2.8s7.6,1.1,10.6,3.2,5.4,5.2,7,9.2,2.5,8.8,2.5,14.3c0,8.3-1.8,14.9-5.5,19.6-3.7,4.8-8.6,7.1-14.7,7.1s-6.8-.8-9.3-2.5-4.3-4-5.4-7h-1.8c.1,2.5.2,4.6.2,6.3,0,1.7,0,3.2,0,4.5v13.5h-13.3,0ZM377.7,160.2c3.8,0,6.6-1.1,8.4-3.3,1.8-2.2,2.7-5.6,2.7-10.3v-5.8c0-4.6-.9-8.1-2.7-10.3-1.8-2.2-4.6-3.3-8.4-3.3s-6.6,1.1-8.5,3.3c-1.8,2.2-2.8,5.6-2.8,10.3v5.8c0,4.6.9,8.1,2.8,10.3,1.8,2.2,4.7,3.3,8.5,3.3Z"/>
      </g>
      <g>
        <path class="st1" d="M405.6,170.3v-54.2h19.3l10.4,37.1h1.5l10.3-37.1h19.3v54.2h-11.2v-45.5h-1.5l-12.7,45.5h-10.1l-12.7-46h-1.6v46h-10.9,0Z"/>
        <path class="st1" d="M481,171.1c-4.1,0-7.4-1.1-9.8-3.2s-3.5-5.1-3.5-8.8,1.3-6.8,3.9-9c2.6-2.2,6.3-3.5,11.2-4l11.2-1.1v6.9l-7.9.7c-2.6.3-4.4.8-5.5,1.6-1.1.8-1.7,1.9-1.7,3.5v.7c0,1.5.6,2.6,1.9,3.4,1.2.8,3,1.2,5.1,1.2,5.5,0,8.2-2.2,8.2-6.6v-12.6c0-2.7-.6-4.7-1.7-6-1.1-1.3-3-1.9-5.4-1.9s-3,.2-4,.7-1.8,1-2.2,1.6c-.5.6-.7,1.2-.7,1.7v.3h-11.1c1.9-8.4,8-12.6,18.2-12.6s10.2,1.4,13.2,4.1c3,2.7,4.5,6.7,4.5,12v26.7h-10v-7.1h-1.5c-.9,2.6-2.4,4.5-4.5,5.9-2,1.4-4.7,2-7.9,2h0Z"/>
        <path class="st1" d="M508,170.3v-42h10v7.5h1.5c1-2.7,2.5-4.7,4.5-6.1,2-1.4,4.5-2.1,7.6-2.1s7.6,1.3,9.9,3.9,3.4,6.4,3.4,11.5v27.4h-10.9v-25.3c0-3.1-.6-5.5-1.8-6.9s-3.1-2.2-5.7-2.2-4.5.7-5.7,2.2-1.9,3.8-1.9,6.9v25.3h-10.9,0Z"/>
      </g>
    </g>
    <g>
      <path class="st1" d="M114.1,138.2c10-17.5,10-39.9-1.5-57.8h0c-1.5-2.3-3.8-4-6.5-4.8-12.6-3.5-24.2-11-32.6-22.1L32.5,0l36.5,56.8c17.3,27,10.9,62.5-14.8,81.7L0,178.8l57.3-35.8c17.6-11,38.7-12.1,56.8-4.7h0Z"/>
      <path class="st1" d="M141.3,159.8l39.7,51.9-32.8-51.1c-2.3-.4-4.6-.7-6.9-.8h0Z"/>
      <path class="st1" d="M159.4,73.2l54.1-40.3-57.3,35.8c-7.8,4.9-16.4,7.9-25.1,8.9,4.2,4.2,9,7.6,14.3,10.2,3.7-5.5,8.4-10.4,14-14.6h0Z"/>
      <path class="st1" d="M207.5,94.2l54.1-40.3-57.3,35.8c-19.1,12-42.6,12.3-61.6,2.5-6.8-3.4-13-8.2-18.2-14.1-1-1.1-1.9-2.3-2.9-3.4l-41-53.7,36.5,56.8h0c12.5,19.6,12.6,43.7,1.9,62.7-4,7.2-9.6,13.7-16.7,19l-54.1,40.3,57.3-35.8c9.8-6.1,20.9-9.2,31.8-9.4,2.5,0,5,0,7.4.3,16.7,1.7,32.6,10,43.5,24.2l41,53.7-36.4-56.8c-17.3-27-10.9-62.5,14.8-81.7h0Z"/>
    </g>
  </g>
  <g>
    <g>
      <g>
        <path class="st0" d="M236.2-177c-9.5,0-17-2.9-22.3-8.7s-8-14.3-8-25.6,2.7-19.8,8-25.6c5.3-5.8,12.7-8.7,22.3-8.7s15,2.1,20,6.4c5,4.2,8.1,10.4,9.2,18.4h-14v-2.1c0-2-.5-3.9-1.5-5.8s-2.6-3.4-4.8-4.5-5.2-1.8-8.8-1.8c-5.4,0-9.4,1.5-11.9,4.6-2.5,3.1-3.8,7.9-3.8,14.5v9.1c0,6.6,1.3,11.4,3.8,14.5,2.5,3.1,6.5,4.6,11.9,4.6s6.6-.6,8.8-1.8c2.2-1.2,3.8-2.8,4.8-4.7s1.5-4,1.5-6.1v-2.3h14.1c-1,8.3-4.1,14.6-9.1,19s-11.8,6.6-20.2,6.6h0Z"/>
        <path class="st0" d="M289.9-177c-8,0-14.4-2.3-18.9-7-4.5-4.6-6.8-11.2-6.8-19.8s2.3-15.2,6.8-19.8c4.5-4.6,10.8-7,18.9-7s14.3,2.3,18.8,7,6.8,11.2,6.8,19.8-2.3,15.2-6.8,19.8c-4.5,4.6-10.8,7-18.8,7ZM289.9-187.2c4,0,6.9-1.1,8.7-3.3,1.8-2.2,2.8-5.7,2.8-10.4v-5.6c0-4.7-.9-8.2-2.8-10.4-1.8-2.2-4.8-3.3-8.7-3.3s-6.8,1.1-8.7,3.3-2.9,5.7-2.9,10.4v5.6c0,4.7,1,8.2,2.9,10.4s4.8,3.3,8.7,3.3Z"/>
        <path class="st0" d="M316.9-177.9v-51.6h12.3v9.3h1.8c1.2-3.3,3-5.8,5.3-7.4,2.3-1.7,5.3-2.5,8.9-2.5h7.8v10.9h-13.5c-3.2,0-5.5.9-7,2.6s-2.3,4.5-2.3,8.3v30.4h-13.4Z"/>
        <path class="st0" d="M353.2-162.1v-67.4h12.3v9.4h1.8c1.2-3.2,3.2-5.8,5.8-7.6,2.6-1.8,5.9-2.8,9.7-2.8s7.6,1.1,10.6,3.2,5.4,5.2,7,9.2,2.5,8.8,2.5,14.3c0,8.3-1.8,14.9-5.5,19.6-3.7,4.8-8.6,7.1-14.7,7.1s-6.8-.8-9.3-2.5-4.3-4-5.4-7h-1.8c.1,2.5.2,4.6.2,6.3,0,1.7,0,3.2,0,4.5v13.5h-13.3,0ZM377.7-187.2c3.8,0,6.6-1.1,8.4-3.3,1.8-2.2,2.7-5.6,2.7-10.3v-5.8c0-4.6-.9-8.1-2.7-10.3-1.8-2.2-4.6-3.3-8.4-3.3s-6.6,1.1-8.5,3.3c-1.8,2.2-2.8,5.6-2.8,10.3v5.8c0,4.6.9,8.1,2.8,10.3,1.8,2.2,4.7,3.3,8.5,3.3Z"/>
      </g>
      <g>
        <path class="st0" d="M405.6-177.1v-54.2h19.3l10.4,37.1h1.5l10.3-37.1h19.3v54.2h-11.2v-45.5h-1.5l-12.7,45.5h-10.1l-12.7-46h-1.6v46h-10.9,0Z"/>
        <path class="st0" d="M481-176.3c-4.1,0-7.4-1.1-9.8-3.2s-3.5-5.1-3.5-8.8,1.3-6.8,3.9-9c2.6-2.2,6.3-3.5,11.2-4l11.2-1.1v6.9l-7.9.7c-2.6.3-4.4.8-5.5,1.6-1.1.8-1.7,1.9-1.7,3.5v.7c0,1.5.6,2.6,1.9,3.4,1.2.8,3,1.2,5.1,1.2,5.5,0,8.2-2.2,8.2-6.6v-12.6c0-2.7-.6-4.7-1.7-6-1.1-1.3-3-1.9-5.4-1.9s-3,.2-4,.7-1.8,1-2.2,1.6c-.5.6-.7,1.2-.7,1.7v.3h-11.1c1.9-8.4,8-12.6,18.2-12.6s10.2,1.4,13.2,4.1c3,2.7,4.5,6.7,4.5,12v26.7h-10v-7.1h-1.5c-.9,2.6-2.4,4.5-4.5,5.9-2,1.4-4.7,2-7.9,2h0Z"/>
        <path class="st0" d="M508-177.1v-42h10v7.5h1.5c1-2.7,2.5-4.7,4.5-6.1,2-1.4,4.5-2.1,7.6-2.1s7.6,1.3,9.9,3.9,3.4,6.4,3.4,11.5v27.4h-10.9v-25.3c0-3.1-.6-5.5-1.8-6.9s-3.1-2.2-5.7-2.2-4.5.7-5.7,2.2-1.9,3.8-1.9,6.9v25.3h-10.9,0Z"/>
      </g>
    </g>
    <g>
      <path class="st0" d="M114.1-209.2c10-17.5,10-39.9-1.5-57.8h0c-1.5-2.3-3.8-4-6.5-4.8-12.6-3.5-24.2-11-32.6-22.1l-41-53.6,36.5,56.8c17.3,27,10.9,62.5-14.8,81.7L0-168.7l57.3-35.8c17.6-11,38.7-12.1,56.8-4.7h0Z"/>
      <path class="st0" d="M141.3-187.7l39.7,51.9-32.8-51.1c-2.3-.4-4.6-.7-6.9-.8h0Z"/>
      <path class="st0" d="M159.4-274.2l54.1-40.3-57.3,35.8c-7.8,4.9-16.4,7.9-25.1,8.9,4.2,4.2,9,7.6,14.3,10.2,3.7-5.5,8.4-10.4,14-14.6h0Z"/>
      <path class="st0" d="M207.5-253.2l54.1-40.3-57.3,35.8c-19.1,12-42.6,12.3-61.6,2.5-6.8-3.4-13-8.2-18.2-14.1-1-1.1-1.9-2.3-2.9-3.4l-41-53.7,36.5,56.8h0c12.5,19.6,12.6,43.7,1.9,62.7-4,7.2-9.6,13.7-16.7,19l-54.1,40.3,57.3-35.8c9.8-6.1,20.9-9.2,31.8-9.4,2.5,0,5,0,7.4.3,16.7,1.7,32.6,10,43.5,24.2l41,53.7-36.4-56.8c-17.3-27-10.9-62.5,14.8-81.7h0Z"/>
    </g>
  </g>
</svg>