<?xml version="1.0" encoding="UTF-8"?>
<svg id="Layer_1" data-name="Layer 1" xmlns="http://www.w3.org/2000/svg" viewBox="0 0 544.81 232.66">
  <defs>
    <style>
      .cls-1 {
        fill: #c27aff;
      }
    </style>
  </defs>
  <g>
    <g>
      <path class="cls-1" d="M236.18,170.46c-9.53,0-16.95-2.9-22.27-8.69s-7.97-14.33-7.97-25.6,2.66-19.8,7.97-25.6c5.31-5.79,12.73-8.69,22.27-8.69,8.31,0,14.97,2.12,20,6.38,5.02,4.25,8.08,10.4,9.18,18.45h-14.01v-2.12c0-2-.5-3.91-1.5-5.75s-2.61-3.35-4.83-4.54-5.17-1.79-8.84-1.79c-5.41,0-9.39,1.54-11.93,4.64-2.54,3.09-3.82,7.92-3.82,14.49v9.08c0,6.57,1.27,11.4,3.82,14.49,2.54,3.09,6.52,4.64,11.93,4.64,3.67,0,6.62-.61,8.84-1.84,2.22-1.22,3.83-2.8,4.83-4.73s1.5-3.96,1.5-6.09v-2.32h14.1c-1.03,8.31-4.06,14.65-9.08,19.03s-11.75,6.57-20.19,6.57h0Z"/>
      <path class="cls-1" d="M289.89,170.46c-8.05,0-14.35-2.32-18.88-6.96-4.54-4.64-6.81-11.24-6.81-19.8s2.27-15.17,6.81-19.8c4.54-4.64,10.83-6.96,18.88-6.96s14.33,2.32,18.84,6.96,6.76,11.24,6.76,19.8-2.26,15.17-6.76,19.8c-4.51,4.64-10.79,6.96-18.84,6.96ZM289.89,160.23c3.99,0,6.91-1.11,8.74-3.33,1.84-2.22,2.75-5.68,2.75-10.38v-5.6c0-4.7-.92-8.16-2.75-10.38-1.84-2.22-4.75-3.33-8.74-3.33s-6.84,1.11-8.74,3.33-2.85,5.68-2.85,10.38v5.6c0,4.7.95,8.16,2.85,10.38s4.81,3.33,8.74,3.33Z"/>
      <path class="cls-1" d="M316.94,169.5v-51.59h12.27v9.27h1.84c1.22-3.28,2.98-5.76,5.27-7.44,2.29-1.67,5.26-2.51,8.94-2.51h7.82v10.92h-13.52c-3.16,0-5.49.87-7,2.61s-2.27,4.51-2.27,8.31v30.43h-13.35Z"/>
      <path class="cls-1" d="M353.16,185.34v-67.43h12.27v9.37h1.84c1.22-3.22,3.15-5.75,5.8-7.58,2.64-1.83,5.86-2.75,9.66-2.75,4.06,0,7.6,1.08,10.62,3.24s5.38,5.23,7.05,9.22,2.51,8.76,2.51,14.3c0,8.31-1.84,14.85-5.51,19.61-3.67,4.77-8.57,7.15-14.68,7.15-3.74,0-6.84-.84-9.32-2.51s-4.27-3.99-5.36-6.96h-1.84c.13,2.51.21,4.61.24,6.28.03,1.68.05,3.19.05,4.54v13.52h-13.33,0ZM377.7,160.23c3.8,0,6.6-1.11,8.4-3.33,1.8-2.22,2.71-5.65,2.71-10.29v-5.8c0-4.64-.9-8.07-2.71-10.29-1.8-2.22-4.61-3.33-8.4-3.33s-6.62,1.11-8.45,3.33c-1.84,2.22-2.75,5.65-2.75,10.29v5.8c0,4.64.92,8.07,2.75,10.29,1.84,2.22,4.65,3.33,8.45,3.33Z"/>
    </g>
    <g>
      <path class="cls-1" d="M405.56,170.32v-54.23h19.26l10.37,37.1h1.49l10.29-37.1h19.33v54.23h-11.24v-45.51h-1.49l-12.73,45.51h-10.14l-12.73-45.98h-1.57v45.98h-10.85.01Z"/>
      <path class="cls-1" d="M481.01,171.1c-4.14,0-7.39-1.07-9.75-3.22s-3.54-5.08-3.54-8.8,1.28-6.82,3.85-9c2.57-2.17,6.31-3.5,11.24-3.97l11.24-1.1v6.92l-7.94.71c-2.57.26-4.42.79-5.54,1.57-1.13.79-1.69,1.94-1.69,3.46v.71c0,1.47.62,2.61,1.85,3.42,1.23.81,2.95,1.22,5.15,1.22,5.45,0,8.17-2.2,8.17-6.6v-12.65c0-2.72-.58-4.71-1.73-5.97-1.15-1.26-2.96-1.89-5.42-1.89-1.62,0-2.95.24-3.97.71s-1.77,1.01-2.24,1.61c-.47.6-.71,1.17-.71,1.69v.31h-11.08c1.94-8.44,8.02-12.65,18.23-12.65,5.81,0,10.23,1.36,13.24,4.09,3.01,2.72,4.52,6.71,4.52,11.95v26.72h-9.98v-7.15h-1.49c-.94,2.57-2.44,4.53-4.48,5.89-2.04,1.36-4.69,2.04-7.94,2.04v-.02Z"/>
      <path class="cls-1" d="M507.96,170.32v-41.97h9.98v7.47h1.49c.99-2.67,2.49-4.72,4.48-6.13,1.99-1.41,4.53-2.12,7.62-2.12,4.35,0,7.65,1.31,9.9,3.93s3.38,6.44,3.38,11.47v27.35h-10.92v-25.31c0-3.14-.6-5.45-1.81-6.92s-3.12-2.2-5.74-2.2-4.47.73-5.7,2.2-1.85,3.77-1.85,6.92v25.31h-10.85.02Z"/>
    </g>
  </g>
  <g>
    <path class="cls-1" d="M114.08,138.25c9.95-17.51,10.02-39.86-1.48-57.75h0c-1.49-2.33-3.8-4-6.45-4.75-12.6-3.55-24.15-11.04-32.64-22.13L32.48,0l36.46,56.77c17.31,26.99,10.85,62.51-14.84,81.68L0,178.77l57.27-35.79c17.57-10.96,38.75-12.13,56.81-4.72h0Z"/>
    <path class="cls-1" d="M141.32,159.76l39.67,51.89-32.81-51.12c-2.28-.39-4.59-.65-6.87-.78h0Z"/>
    <path class="cls-1" d="M159.4,73.2l54.08-40.32-57.27,35.76c-7.85,4.92-16.42,7.85-25.11,8.94,4.19,4.16,9.01,7.59,14.27,10.22,3.75-5.48,8.43-10.43,14.02-14.61h0Z"/>
    <path class="cls-1" d="M207.46,94.21l54.08-40.34-57.27,35.79c-19.15,11.95-42.61,12.29-61.62,2.54-6.78-3.43-12.98-8.16-18.22-14.12-.99-1.09-1.94-2.26-2.86-3.45l-41.02-53.65,36.45,56.79v.02c12.54,19.57,12.61,43.63,1.86,62.65-4.04,7.23-9.63,13.74-16.69,18.98l-54.1,40.34,57.27-35.79c9.84-6.15,20.85-9.24,31.78-9.42,2.47-.07,4.96.04,7.43.28,16.7,1.67,32.64,9.98,43.49,24.17l41.02,53.65-36.43-56.79c-17.34-26.97-10.88-62.49,14.84-81.66h0Z"/>
  </g>
</svg>