<?xml version="1.0" encoding="UTF-8"?>
<svg id="Layer_1" data-name="Layer 1" xmlns="http://www.w3.org/2000/svg" viewBox="0 0 1779.81 1779.81">
  <defs>
    <style>
      .cls-1 {
        fill: #fff;
      }

      .cls-2 {
        fill: #633e82;
      }
    </style>
  </defs>
  <rect class="cls-2" width="1779.81" height="1779.81" rx="411.66" ry="411.66"/>
  <g>
    <path class="cls-1" d="M798.39,1009.37c54.8-95.9,54.8-218.65-8.22-316.74h0c-8.22-12.6-20.82-21.92-35.62-26.3-69.05-19.18-132.61-60.28-178.64-121.11l-224.67-293.17,200.02,311.26c94.8,147.96,59.73,342.49-81.1,447.71l-297.01,220.84,314-196.18c96.45-60.28,212.07-66.31,311.26-25.76h0v-.55Z"/>
    <path class="cls-1" d="M947.44,1127.73l217.55,284.41-179.74-280.02c-12.6-2.19-25.21-3.84-37.81-4.38h0Z"/>
    <path class="cls-1" d="M1046.63,653.17l296.46-220.84-314,196.18c-42.74,26.85-89.87,43.29-137.54,48.77,23.02,23.02,49.32,41.65,78.36,55.89,20.28-30.14,46.03-56.99,76.72-80.01h0Z"/>
    <path class="cls-1" d="M1310.21,768.25l296.46-220.84-314,196.18c-104.67,65.76-233.44,67.4-337.56,13.7-37.26-18.63-71.24-44.93-99.73-77.27-5.48-6.03-10.41-12.6-15.89-18.63l-224.67-294.27,200.02,311.26h0c68.5,107.41,69.05,239.47,10.41,343.59-21.92,39.46-52.61,75.07-91.51,104.12l-296.46,220.84,314-196.18c53.7-33.43,114.53-50.41,174.26-51.51,13.7,0,27.4,0,40.55,1.64,91.51,9.32,178.64,54.8,238.37,132.61l224.67,294.27-199.47-311.26c-94.8-147.96-59.73-342.49,81.1-447.71h0l-.55-.55Z"/>
  </g>
</svg>